<mxfile host="Electron" agent="Mozilla/5.0 (Windows NT 10.0; Win64; x64) AppleWebKit/537.36 (KHTML, like Gecko) draw.io/24.7.8 Chrome/128.0.6613.36 Electron/32.0.1 Safari/537.36" version="24.7.8">
  <diagram id="lqxw-nNjkoBHV5f619FW" name="Página-1">
    <mxGraphModel dx="2338" dy="1997" grid="1" gridSize="10" guides="1" tooltips="1" connect="1" arrows="1" fold="1" page="1" pageScale="1" pageWidth="827" pageHeight="1169" math="0" shadow="0">
      <root>
        <mxCell id="0" />
        <mxCell id="1" parent="0" />
        <mxCell id="S8cXDSExtbcGuD77vyI0-1" value="" style="rounded=1;whiteSpace=wrap;html=1;" vertex="1" parent="1">
          <mxGeometry x="-240" y="-170" width="1390" height="2130" as="geometry" />
        </mxCell>
        <mxCell id="S8cXDSExtbcGuD77vyI0-2" style="edgeStyle=orthogonalEdgeStyle;rounded=0;orthogonalLoop=1;jettySize=auto;html=1;exitX=0.5;exitY=0.5;exitDx=0;exitDy=0;exitPerimeter=0;entryX=0;entryY=0.5;entryDx=0;entryDy=0;" edge="1" parent="1" source="S8cXDSExtbcGuD77vyI0-3" target="S8cXDSExtbcGuD77vyI0-8">
          <mxGeometry relative="1" as="geometry" />
        </mxCell>
        <mxCell id="S8cXDSExtbcGuD77vyI0-3" value="Sistema" style="shape=umlActor;verticalLabelPosition=bottom;verticalAlign=top;html=1;outlineConnect=0;fillColor=#f5f5f5;gradientColor=#b3b3b3;strokeColor=#666666;" vertex="1" parent="1">
          <mxGeometry x="-130" y="130" width="60" height="110" as="geometry" />
        </mxCell>
        <mxCell id="S8cXDSExtbcGuD77vyI0-4" style="rounded=0;orthogonalLoop=1;jettySize=auto;html=1;exitX=1;exitY=0;exitDx=0;exitDy=0;dashed=1;dashPattern=12 12;endArrow=open;endFill=0;" edge="1" parent="1" source="S8cXDSExtbcGuD77vyI0-8" target="S8cXDSExtbcGuD77vyI0-9">
          <mxGeometry relative="1" as="geometry" />
        </mxCell>
        <mxCell id="S8cXDSExtbcGuD77vyI0-5" value="&amp;lt;&amp;lt;Include&amp;gt;&amp;gt;" style="edgeLabel;html=1;align=center;verticalAlign=middle;resizable=0;points=[];" vertex="1" connectable="0" parent="S8cXDSExtbcGuD77vyI0-4">
          <mxGeometry x="0.0261" y="2" relative="1" as="geometry">
            <mxPoint as="offset" />
          </mxGeometry>
        </mxCell>
        <mxCell id="S8cXDSExtbcGuD77vyI0-6" style="rounded=0;orthogonalLoop=1;jettySize=auto;html=1;exitX=1;exitY=0.5;exitDx=0;exitDy=0;entryX=0;entryY=0.5;entryDx=0;entryDy=0;dashed=1;dashPattern=12 12;endArrow=open;endFill=0;" edge="1" parent="1" source="S8cXDSExtbcGuD77vyI0-8" target="S8cXDSExtbcGuD77vyI0-10">
          <mxGeometry relative="1" as="geometry" />
        </mxCell>
        <mxCell id="S8cXDSExtbcGuD77vyI0-7" value="&amp;lt;&amp;lt;Include&amp;gt;&amp;gt;" style="edgeLabel;html=1;align=center;verticalAlign=middle;resizable=0;points=[];" vertex="1" connectable="0" parent="S8cXDSExtbcGuD77vyI0-6">
          <mxGeometry x="-0.1" y="-1" relative="1" as="geometry">
            <mxPoint as="offset" />
          </mxGeometry>
        </mxCell>
        <mxCell id="S8cXDSExtbcGuD77vyI0-8" value="RF001&lt;div&gt;Gerar Token&lt;/div&gt;" style="ellipse;whiteSpace=wrap;html=1;fillColor=#ffcd28;gradientColor=#ffa500;strokeColor=#d79b00;" vertex="1" parent="1">
          <mxGeometry y="150" width="110" height="70" as="geometry" />
        </mxCell>
        <mxCell id="S8cXDSExtbcGuD77vyI0-9" value="RF001.1&lt;div&gt;Realiza leitura do token&lt;/div&gt;" style="ellipse;whiteSpace=wrap;html=1;fillColor=#dae8fc;gradientColor=#7ea6e0;strokeColor=#6c8ebf;" vertex="1" parent="1">
          <mxGeometry x="210" y="60" width="110" height="70" as="geometry" />
        </mxCell>
        <mxCell id="S8cXDSExtbcGuD77vyI0-10" value="RF001.2&lt;div&gt;Autenticação do token&lt;/div&gt;" style="ellipse;whiteSpace=wrap;html=1;fillColor=#dae8fc;gradientColor=#7ea6e0;strokeColor=#6c8ebf;" vertex="1" parent="1">
          <mxGeometry x="210" y="150" width="110" height="70" as="geometry" />
        </mxCell>
        <mxCell id="S8cXDSExtbcGuD77vyI0-11" value="RF001.3&lt;div&gt;Valida Token&lt;/div&gt;" style="ellipse;whiteSpace=wrap;html=1;fillColor=#dae8fc;gradientColor=#7ea6e0;strokeColor=#6c8ebf;" vertex="1" parent="1">
          <mxGeometry x="210" y="240" width="110" height="70" as="geometry" />
        </mxCell>
        <mxCell id="S8cXDSExtbcGuD77vyI0-12" style="rounded=0;orthogonalLoop=1;jettySize=auto;html=1;exitX=1;exitY=1;exitDx=0;exitDy=0;entryX=0;entryY=0.5;entryDx=0;entryDy=0;endArrow=open;endFill=0;dashed=1;dashPattern=12 12;" edge="1" parent="1" source="S8cXDSExtbcGuD77vyI0-8" target="S8cXDSExtbcGuD77vyI0-11">
          <mxGeometry relative="1" as="geometry" />
        </mxCell>
        <mxCell id="S8cXDSExtbcGuD77vyI0-13" value="&amp;lt;&amp;lt;Include&amp;gt;&amp;gt;" style="edgeLabel;html=1;align=center;verticalAlign=middle;resizable=0;points=[];" vertex="1" connectable="0" parent="S8cXDSExtbcGuD77vyI0-12">
          <mxGeometry x="-0.0838" y="2" relative="1" as="geometry">
            <mxPoint as="offset" />
          </mxGeometry>
        </mxCell>
        <mxCell id="S8cXDSExtbcGuD77vyI0-14" style="edgeStyle=orthogonalEdgeStyle;rounded=0;orthogonalLoop=1;jettySize=auto;html=1;exitX=0.5;exitY=0.5;exitDx=0;exitDy=0;exitPerimeter=0;entryX=0;entryY=0.5;entryDx=0;entryDy=0;" edge="1" parent="1" source="S8cXDSExtbcGuD77vyI0-15" target="S8cXDSExtbcGuD77vyI0-20">
          <mxGeometry relative="1" as="geometry" />
        </mxCell>
        <mxCell id="S8cXDSExtbcGuD77vyI0-15" value="Usuário" style="shape=umlActor;verticalLabelPosition=bottom;verticalAlign=top;html=1;outlineConnect=0;fillColor=#f5f5f5;gradientColor=#b3b3b3;strokeColor=#666666;" vertex="1" parent="1">
          <mxGeometry x="480" y="130" width="60" height="110" as="geometry" />
        </mxCell>
        <mxCell id="S8cXDSExtbcGuD77vyI0-16" style="rounded=0;orthogonalLoop=1;jettySize=auto;html=1;exitX=1;exitY=0;exitDx=0;exitDy=0;dashed=1;dashPattern=12 12;endArrow=open;endFill=0;" edge="1" parent="1" source="S8cXDSExtbcGuD77vyI0-20" target="S8cXDSExtbcGuD77vyI0-21">
          <mxGeometry relative="1" as="geometry" />
        </mxCell>
        <mxCell id="S8cXDSExtbcGuD77vyI0-17" value="&amp;lt;&amp;lt;Include&amp;gt;&amp;gt;" style="edgeLabel;html=1;align=center;verticalAlign=middle;resizable=0;points=[];" vertex="1" connectable="0" parent="S8cXDSExtbcGuD77vyI0-16">
          <mxGeometry x="0.0261" y="2" relative="1" as="geometry">
            <mxPoint as="offset" />
          </mxGeometry>
        </mxCell>
        <mxCell id="S8cXDSExtbcGuD77vyI0-18" style="rounded=0;orthogonalLoop=1;jettySize=auto;html=1;exitX=1;exitY=0.5;exitDx=0;exitDy=0;entryX=0;entryY=0.5;entryDx=0;entryDy=0;dashed=1;dashPattern=12 12;endArrow=open;endFill=0;" edge="1" parent="1" source="S8cXDSExtbcGuD77vyI0-20" target="S8cXDSExtbcGuD77vyI0-22">
          <mxGeometry relative="1" as="geometry" />
        </mxCell>
        <mxCell id="S8cXDSExtbcGuD77vyI0-19" value="&amp;lt;&amp;lt;Include&amp;gt;&amp;gt;" style="edgeLabel;html=1;align=center;verticalAlign=middle;resizable=0;points=[];" vertex="1" connectable="0" parent="S8cXDSExtbcGuD77vyI0-18">
          <mxGeometry x="-0.1" y="-1" relative="1" as="geometry">
            <mxPoint as="offset" />
          </mxGeometry>
        </mxCell>
        <mxCell id="S8cXDSExtbcGuD77vyI0-20" value="RF002&lt;div&gt;Registar Login&lt;/div&gt;" style="ellipse;whiteSpace=wrap;html=1;fillColor=#ffcd28;gradientColor=#ffa500;strokeColor=#d79b00;" vertex="1" parent="1">
          <mxGeometry x="610" y="150" width="110" height="70" as="geometry" />
        </mxCell>
        <mxCell id="S8cXDSExtbcGuD77vyI0-21" value="RF002.1&lt;div&gt;Realiza Cadastro&lt;/div&gt;" style="ellipse;whiteSpace=wrap;html=1;fillColor=#dae8fc;gradientColor=#7ea6e0;strokeColor=#6c8ebf;" vertex="1" parent="1">
          <mxGeometry x="820" y="60" width="110" height="70" as="geometry" />
        </mxCell>
        <mxCell id="S8cXDSExtbcGuD77vyI0-22" value="RF002.2&lt;div&gt;Fazer Login&lt;/div&gt;" style="ellipse;whiteSpace=wrap;html=1;fillColor=#dae8fc;gradientColor=#7ea6e0;strokeColor=#6c8ebf;" vertex="1" parent="1">
          <mxGeometry x="820" y="150" width="110" height="70" as="geometry" />
        </mxCell>
        <mxCell id="S8cXDSExtbcGuD77vyI0-23" value="RF002.3&lt;div&gt;Valida Token&lt;/div&gt;" style="ellipse;whiteSpace=wrap;html=1;fillColor=#dae8fc;gradientColor=#7ea6e0;strokeColor=#6c8ebf;" vertex="1" parent="1">
          <mxGeometry x="820" y="240" width="110" height="70" as="geometry" />
        </mxCell>
        <mxCell id="S8cXDSExtbcGuD77vyI0-24" style="rounded=0;orthogonalLoop=1;jettySize=auto;html=1;exitX=1;exitY=1;exitDx=0;exitDy=0;entryX=0;entryY=0.5;entryDx=0;entryDy=0;endArrow=open;endFill=0;dashed=1;dashPattern=12 12;" edge="1" parent="1" source="S8cXDSExtbcGuD77vyI0-20" target="S8cXDSExtbcGuD77vyI0-23">
          <mxGeometry relative="1" as="geometry" />
        </mxCell>
        <mxCell id="S8cXDSExtbcGuD77vyI0-25" value="&amp;lt;&amp;lt;Include&amp;gt;&amp;gt;" style="edgeLabel;html=1;align=center;verticalAlign=middle;resizable=0;points=[];" vertex="1" connectable="0" parent="S8cXDSExtbcGuD77vyI0-24">
          <mxGeometry x="-0.0838" y="2" relative="1" as="geometry">
            <mxPoint as="offset" />
          </mxGeometry>
        </mxCell>
        <mxCell id="S8cXDSExtbcGuD77vyI0-26" style="edgeStyle=orthogonalEdgeStyle;rounded=0;orthogonalLoop=1;jettySize=auto;html=1;exitX=0.5;exitY=0.5;exitDx=0;exitDy=0;exitPerimeter=0;entryX=0;entryY=0.5;entryDx=0;entryDy=0;" edge="1" parent="1" source="S8cXDSExtbcGuD77vyI0-27" target="S8cXDSExtbcGuD77vyI0-32">
          <mxGeometry relative="1" as="geometry" />
        </mxCell>
        <mxCell id="S8cXDSExtbcGuD77vyI0-27" value="Usuário" style="shape=umlActor;verticalLabelPosition=bottom;verticalAlign=top;html=1;outlineConnect=0;fillColor=#f5f5f5;gradientColor=#b3b3b3;strokeColor=#666666;" vertex="1" parent="1">
          <mxGeometry x="-130" y="430" width="60" height="110" as="geometry" />
        </mxCell>
        <mxCell id="S8cXDSExtbcGuD77vyI0-28" style="rounded=0;orthogonalLoop=1;jettySize=auto;html=1;exitX=1;exitY=0;exitDx=0;exitDy=0;dashed=1;dashPattern=12 12;endArrow=open;endFill=0;" edge="1" parent="1" source="S8cXDSExtbcGuD77vyI0-32" target="S8cXDSExtbcGuD77vyI0-33">
          <mxGeometry relative="1" as="geometry" />
        </mxCell>
        <mxCell id="S8cXDSExtbcGuD77vyI0-29" value="&amp;lt;&amp;lt;Include&amp;gt;&amp;gt;" style="edgeLabel;html=1;align=center;verticalAlign=middle;resizable=0;points=[];" vertex="1" connectable="0" parent="S8cXDSExtbcGuD77vyI0-28">
          <mxGeometry x="0.0261" y="2" relative="1" as="geometry">
            <mxPoint as="offset" />
          </mxGeometry>
        </mxCell>
        <mxCell id="S8cXDSExtbcGuD77vyI0-30" style="rounded=0;orthogonalLoop=1;jettySize=auto;html=1;exitX=1;exitY=0.5;exitDx=0;exitDy=0;entryX=0;entryY=0.5;entryDx=0;entryDy=0;dashed=1;dashPattern=12 12;endArrow=open;endFill=0;" edge="1" parent="1" source="S8cXDSExtbcGuD77vyI0-32" target="S8cXDSExtbcGuD77vyI0-34">
          <mxGeometry relative="1" as="geometry" />
        </mxCell>
        <mxCell id="S8cXDSExtbcGuD77vyI0-31" value="&amp;lt;&amp;lt;Include&amp;gt;&amp;gt;" style="edgeLabel;html=1;align=center;verticalAlign=middle;resizable=0;points=[];" vertex="1" connectable="0" parent="S8cXDSExtbcGuD77vyI0-30">
          <mxGeometry x="-0.1" y="-1" relative="1" as="geometry">
            <mxPoint as="offset" />
          </mxGeometry>
        </mxCell>
        <mxCell id="S8cXDSExtbcGuD77vyI0-32" value="RF003&lt;div&gt;Questionário Inicial&lt;/div&gt;" style="ellipse;whiteSpace=wrap;html=1;fillColor=#ffcd28;gradientColor=#ffa500;strokeColor=#d79b00;" vertex="1" parent="1">
          <mxGeometry y="450" width="110" height="70" as="geometry" />
        </mxCell>
        <mxCell id="S8cXDSExtbcGuD77vyI0-33" value="RF003.1&lt;div&gt;Exibe questionário&lt;/div&gt;" style="ellipse;whiteSpace=wrap;html=1;fillColor=#dae8fc;gradientColor=#7ea6e0;strokeColor=#6c8ebf;" vertex="1" parent="1">
          <mxGeometry x="210" y="360" width="110" height="70" as="geometry" />
        </mxCell>
        <mxCell id="S8cXDSExtbcGuD77vyI0-34" value="RF003.2&lt;div&gt;Armazena Respostas&lt;/div&gt;" style="ellipse;whiteSpace=wrap;html=1;fillColor=#dae8fc;gradientColor=#7ea6e0;strokeColor=#6c8ebf;" vertex="1" parent="1">
          <mxGeometry x="210" y="450" width="120" height="70" as="geometry" />
        </mxCell>
        <mxCell id="S8cXDSExtbcGuD77vyI0-35" value="RF003.3&lt;div&gt;Sugere trilha personalizada&lt;/div&gt;" style="ellipse;whiteSpace=wrap;html=1;fillColor=#dae8fc;gradientColor=#7ea6e0;strokeColor=#6c8ebf;" vertex="1" parent="1">
          <mxGeometry x="210" y="540" width="120" height="70" as="geometry" />
        </mxCell>
        <mxCell id="S8cXDSExtbcGuD77vyI0-36" style="rounded=0;orthogonalLoop=1;jettySize=auto;html=1;exitX=1;exitY=1;exitDx=0;exitDy=0;entryX=0;entryY=0.5;entryDx=0;entryDy=0;endArrow=open;endFill=0;dashed=1;dashPattern=12 12;" edge="1" parent="1" source="S8cXDSExtbcGuD77vyI0-32" target="S8cXDSExtbcGuD77vyI0-35">
          <mxGeometry relative="1" as="geometry" />
        </mxCell>
        <mxCell id="S8cXDSExtbcGuD77vyI0-37" value="&amp;lt;&amp;lt;Include&amp;gt;&amp;gt;" style="edgeLabel;html=1;align=center;verticalAlign=middle;resizable=0;points=[];" vertex="1" connectable="0" parent="S8cXDSExtbcGuD77vyI0-36">
          <mxGeometry x="-0.0838" y="2" relative="1" as="geometry">
            <mxPoint as="offset" />
          </mxGeometry>
        </mxCell>
        <mxCell id="S8cXDSExtbcGuD77vyI0-38" style="edgeStyle=orthogonalEdgeStyle;rounded=0;orthogonalLoop=1;jettySize=auto;html=1;exitX=0.5;exitY=0.5;exitDx=0;exitDy=0;exitPerimeter=0;entryX=0;entryY=0.5;entryDx=0;entryDy=0;" edge="1" parent="1" source="S8cXDSExtbcGuD77vyI0-39" target="S8cXDSExtbcGuD77vyI0-44">
          <mxGeometry relative="1" as="geometry" />
        </mxCell>
        <mxCell id="S8cXDSExtbcGuD77vyI0-39" value="Usuário" style="shape=umlActor;verticalLabelPosition=bottom;verticalAlign=top;html=1;outlineConnect=0;fillColor=#f5f5f5;gradientColor=#b3b3b3;strokeColor=#666666;" vertex="1" parent="1">
          <mxGeometry x="480" y="440" width="60" height="110" as="geometry" />
        </mxCell>
        <mxCell id="S8cXDSExtbcGuD77vyI0-40" style="rounded=0;orthogonalLoop=1;jettySize=auto;html=1;exitX=1;exitY=0;exitDx=0;exitDy=0;dashed=1;dashPattern=12 12;endArrow=open;endFill=0;" edge="1" parent="1" source="S8cXDSExtbcGuD77vyI0-44" target="S8cXDSExtbcGuD77vyI0-45">
          <mxGeometry relative="1" as="geometry" />
        </mxCell>
        <mxCell id="S8cXDSExtbcGuD77vyI0-41" value="&amp;lt;&amp;lt;Include&amp;gt;&amp;gt;" style="edgeLabel;html=1;align=center;verticalAlign=middle;resizable=0;points=[];" vertex="1" connectable="0" parent="S8cXDSExtbcGuD77vyI0-40">
          <mxGeometry x="0.0261" y="2" relative="1" as="geometry">
            <mxPoint as="offset" />
          </mxGeometry>
        </mxCell>
        <mxCell id="S8cXDSExtbcGuD77vyI0-42" style="rounded=0;orthogonalLoop=1;jettySize=auto;html=1;exitX=1;exitY=0.5;exitDx=0;exitDy=0;entryX=0;entryY=0.5;entryDx=0;entryDy=0;dashed=1;dashPattern=12 12;endArrow=open;endFill=0;" edge="1" parent="1" source="S8cXDSExtbcGuD77vyI0-44" target="S8cXDSExtbcGuD77vyI0-46">
          <mxGeometry relative="1" as="geometry" />
        </mxCell>
        <mxCell id="S8cXDSExtbcGuD77vyI0-43" value="&amp;lt;&amp;lt;Include&amp;gt;&amp;gt;" style="edgeLabel;html=1;align=center;verticalAlign=middle;resizable=0;points=[];" vertex="1" connectable="0" parent="S8cXDSExtbcGuD77vyI0-42">
          <mxGeometry x="-0.1" y="-1" relative="1" as="geometry">
            <mxPoint as="offset" />
          </mxGeometry>
        </mxCell>
        <mxCell id="S8cXDSExtbcGuD77vyI0-44" value="RF004&lt;div&gt;Define Metas&lt;/div&gt;" style="ellipse;whiteSpace=wrap;html=1;fillColor=#ffcd28;gradientColor=#ffa500;strokeColor=#d79b00;" vertex="1" parent="1">
          <mxGeometry x="610" y="460" width="110" height="70" as="geometry" />
        </mxCell>
        <mxCell id="S8cXDSExtbcGuD77vyI0-45" value="RF004.1&lt;div&gt;Definir Metas&lt;/div&gt;" style="ellipse;whiteSpace=wrap;html=1;fillColor=#dae8fc;gradientColor=#7ea6e0;strokeColor=#6c8ebf;" vertex="1" parent="1">
          <mxGeometry x="820" y="370" width="110" height="70" as="geometry" />
        </mxCell>
        <mxCell id="S8cXDSExtbcGuD77vyI0-46" value="RF004.2&lt;div&gt;Armazena Metas&lt;/div&gt;" style="ellipse;whiteSpace=wrap;html=1;fillColor=#dae8fc;gradientColor=#7ea6e0;strokeColor=#6c8ebf;" vertex="1" parent="1">
          <mxGeometry x="820" y="460" width="120" height="70" as="geometry" />
        </mxCell>
        <mxCell id="S8cXDSExtbcGuD77vyI0-47" value="RF004.3&lt;div&gt;Ativar lembrete de Meta&lt;/div&gt;" style="ellipse;whiteSpace=wrap;html=1;fillColor=#dae8fc;gradientColor=#7ea6e0;strokeColor=#6c8ebf;" vertex="1" parent="1">
          <mxGeometry x="820" y="550" width="120" height="70" as="geometry" />
        </mxCell>
        <mxCell id="S8cXDSExtbcGuD77vyI0-48" style="rounded=0;orthogonalLoop=1;jettySize=auto;html=1;exitX=1;exitY=1;exitDx=0;exitDy=0;entryX=0;entryY=0.5;entryDx=0;entryDy=0;endArrow=open;endFill=0;dashed=1;dashPattern=12 12;" edge="1" parent="1" source="S8cXDSExtbcGuD77vyI0-44" target="S8cXDSExtbcGuD77vyI0-47">
          <mxGeometry relative="1" as="geometry" />
        </mxCell>
        <mxCell id="S8cXDSExtbcGuD77vyI0-49" value="&amp;lt;&amp;lt;Include&amp;gt;&amp;gt;" style="edgeLabel;html=1;align=center;verticalAlign=middle;resizable=0;points=[];" vertex="1" connectable="0" parent="S8cXDSExtbcGuD77vyI0-48">
          <mxGeometry x="-0.0838" y="2" relative="1" as="geometry">
            <mxPoint as="offset" />
          </mxGeometry>
        </mxCell>
        <mxCell id="S8cXDSExtbcGuD77vyI0-50" style="edgeStyle=orthogonalEdgeStyle;rounded=0;orthogonalLoop=1;jettySize=auto;html=1;exitX=0.5;exitY=0.5;exitDx=0;exitDy=0;exitPerimeter=0;entryX=0;entryY=0.5;entryDx=0;entryDy=0;" edge="1" parent="1" source="S8cXDSExtbcGuD77vyI0-51" target="S8cXDSExtbcGuD77vyI0-56">
          <mxGeometry relative="1" as="geometry" />
        </mxCell>
        <mxCell id="S8cXDSExtbcGuD77vyI0-51" value="Sistema" style="shape=umlActor;verticalLabelPosition=bottom;verticalAlign=top;html=1;outlineConnect=0;fillColor=#f5f5f5;gradientColor=#b3b3b3;strokeColor=#666666;" vertex="1" parent="1">
          <mxGeometry x="-130" y="720" width="60" height="110" as="geometry" />
        </mxCell>
        <mxCell id="S8cXDSExtbcGuD77vyI0-52" style="rounded=0;orthogonalLoop=1;jettySize=auto;html=1;exitX=1;exitY=0;exitDx=0;exitDy=0;dashed=1;dashPattern=12 12;endArrow=open;endFill=0;" edge="1" parent="1" source="S8cXDSExtbcGuD77vyI0-56" target="S8cXDSExtbcGuD77vyI0-57">
          <mxGeometry relative="1" as="geometry" />
        </mxCell>
        <mxCell id="S8cXDSExtbcGuD77vyI0-53" value="&amp;lt;&amp;lt;Include&amp;gt;&amp;gt;" style="edgeLabel;html=1;align=center;verticalAlign=middle;resizable=0;points=[];" vertex="1" connectable="0" parent="S8cXDSExtbcGuD77vyI0-52">
          <mxGeometry x="0.0261" y="2" relative="1" as="geometry">
            <mxPoint as="offset" />
          </mxGeometry>
        </mxCell>
        <mxCell id="S8cXDSExtbcGuD77vyI0-54" style="rounded=0;orthogonalLoop=1;jettySize=auto;html=1;exitX=1;exitY=0.5;exitDx=0;exitDy=0;entryX=0;entryY=0.5;entryDx=0;entryDy=0;dashed=1;dashPattern=12 12;endArrow=open;endFill=0;" edge="1" parent="1" source="S8cXDSExtbcGuD77vyI0-56" target="S8cXDSExtbcGuD77vyI0-58">
          <mxGeometry relative="1" as="geometry" />
        </mxCell>
        <mxCell id="S8cXDSExtbcGuD77vyI0-55" value="&amp;lt;&amp;lt;Include&amp;gt;&amp;gt;" style="edgeLabel;html=1;align=center;verticalAlign=middle;resizable=0;points=[];" vertex="1" connectable="0" parent="S8cXDSExtbcGuD77vyI0-54">
          <mxGeometry x="-0.1" y="-1" relative="1" as="geometry">
            <mxPoint as="offset" />
          </mxGeometry>
        </mxCell>
        <mxCell id="S8cXDSExtbcGuD77vyI0-56" value="RF005&lt;div&gt;Progresso e Etapas&lt;/div&gt;" style="ellipse;whiteSpace=wrap;html=1;fillColor=#ffcd28;gradientColor=#ffa500;strokeColor=#d79b00;" vertex="1" parent="1">
          <mxGeometry y="740" width="110" height="70" as="geometry" />
        </mxCell>
        <mxCell id="S8cXDSExtbcGuD77vyI0-57" value="RF005.1&lt;div&gt;Mostra Etapas de Aprendizado&lt;/div&gt;" style="ellipse;whiteSpace=wrap;html=1;fillColor=#dae8fc;gradientColor=#7ea6e0;strokeColor=#6c8ebf;" vertex="1" parent="1">
          <mxGeometry x="210" y="650" width="110" height="70" as="geometry" />
        </mxCell>
        <mxCell id="S8cXDSExtbcGuD77vyI0-58" value="RF005.2&lt;div&gt;Armazena o progresso da etapa&lt;/div&gt;" style="ellipse;whiteSpace=wrap;html=1;fillColor=#dae8fc;gradientColor=#7ea6e0;strokeColor=#6c8ebf;" vertex="1" parent="1">
          <mxGeometry x="210" y="740" width="120" height="70" as="geometry" />
        </mxCell>
        <mxCell id="S8cXDSExtbcGuD77vyI0-59" value="RF005.3&lt;div&gt;Atualiza o progresso&lt;/div&gt;" style="ellipse;whiteSpace=wrap;html=1;fillColor=#dae8fc;gradientColor=#7ea6e0;strokeColor=#6c8ebf;" vertex="1" parent="1">
          <mxGeometry x="210" y="830" width="120" height="70" as="geometry" />
        </mxCell>
        <mxCell id="S8cXDSExtbcGuD77vyI0-60" style="rounded=0;orthogonalLoop=1;jettySize=auto;html=1;exitX=1;exitY=1;exitDx=0;exitDy=0;entryX=0;entryY=0.5;entryDx=0;entryDy=0;endArrow=open;endFill=0;dashed=1;dashPattern=12 12;" edge="1" parent="1" source="S8cXDSExtbcGuD77vyI0-56" target="S8cXDSExtbcGuD77vyI0-59">
          <mxGeometry relative="1" as="geometry" />
        </mxCell>
        <mxCell id="S8cXDSExtbcGuD77vyI0-61" value="&amp;lt;&amp;lt;Include&amp;gt;&amp;gt;" style="edgeLabel;html=1;align=center;verticalAlign=middle;resizable=0;points=[];" vertex="1" connectable="0" parent="S8cXDSExtbcGuD77vyI0-60">
          <mxGeometry x="-0.0838" y="2" relative="1" as="geometry">
            <mxPoint as="offset" />
          </mxGeometry>
        </mxCell>
        <mxCell id="S8cXDSExtbcGuD77vyI0-62" style="edgeStyle=orthogonalEdgeStyle;rounded=0;orthogonalLoop=1;jettySize=auto;html=1;exitX=0.5;exitY=0.5;exitDx=0;exitDy=0;exitPerimeter=0;entryX=0;entryY=0.5;entryDx=0;entryDy=0;" edge="1" parent="1" source="S8cXDSExtbcGuD77vyI0-63" target="S8cXDSExtbcGuD77vyI0-68">
          <mxGeometry relative="1" as="geometry" />
        </mxCell>
        <mxCell id="S8cXDSExtbcGuD77vyI0-63" value="Sistema" style="shape=umlActor;verticalLabelPosition=bottom;verticalAlign=top;html=1;outlineConnect=0;fillColor=#f5f5f5;gradientColor=#b3b3b3;strokeColor=#666666;" vertex="1" parent="1">
          <mxGeometry x="480" y="730" width="60" height="110" as="geometry" />
        </mxCell>
        <mxCell id="S8cXDSExtbcGuD77vyI0-64" style="rounded=0;orthogonalLoop=1;jettySize=auto;html=1;exitX=1;exitY=0;exitDx=0;exitDy=0;dashed=1;dashPattern=12 12;endArrow=open;endFill=0;" edge="1" parent="1" source="S8cXDSExtbcGuD77vyI0-68" target="S8cXDSExtbcGuD77vyI0-69">
          <mxGeometry relative="1" as="geometry" />
        </mxCell>
        <mxCell id="S8cXDSExtbcGuD77vyI0-65" value="&amp;lt;&amp;lt;Include&amp;gt;&amp;gt;" style="edgeLabel;html=1;align=center;verticalAlign=middle;resizable=0;points=[];" vertex="1" connectable="0" parent="S8cXDSExtbcGuD77vyI0-64">
          <mxGeometry x="0.0261" y="2" relative="1" as="geometry">
            <mxPoint as="offset" />
          </mxGeometry>
        </mxCell>
        <mxCell id="S8cXDSExtbcGuD77vyI0-66" style="rounded=0;orthogonalLoop=1;jettySize=auto;html=1;exitX=1;exitY=0.5;exitDx=0;exitDy=0;entryX=0;entryY=0.5;entryDx=0;entryDy=0;dashed=1;dashPattern=12 12;endArrow=open;endFill=0;" edge="1" parent="1" source="S8cXDSExtbcGuD77vyI0-68" target="S8cXDSExtbcGuD77vyI0-70">
          <mxGeometry relative="1" as="geometry" />
        </mxCell>
        <mxCell id="S8cXDSExtbcGuD77vyI0-67" value="&amp;lt;&amp;lt;Include&amp;gt;&amp;gt;" style="edgeLabel;html=1;align=center;verticalAlign=middle;resizable=0;points=[];" vertex="1" connectable="0" parent="S8cXDSExtbcGuD77vyI0-66">
          <mxGeometry x="-0.1" y="-1" relative="1" as="geometry">
            <mxPoint as="offset" />
          </mxGeometry>
        </mxCell>
        <mxCell id="S8cXDSExtbcGuD77vyI0-68" value="RF006&lt;div&gt;Atividades&lt;/div&gt;" style="ellipse;whiteSpace=wrap;html=1;fillColor=#ffcd28;gradientColor=#ffa500;strokeColor=#d79b00;" vertex="1" parent="1">
          <mxGeometry x="610" y="750" width="110" height="70" as="geometry" />
        </mxCell>
        <mxCell id="S8cXDSExtbcGuD77vyI0-69" value="RF006.1&lt;div&gt;Exibe atividades Personalizadas&lt;/div&gt;" style="ellipse;whiteSpace=wrap;html=1;fillColor=#dae8fc;gradientColor=#7ea6e0;strokeColor=#6c8ebf;" vertex="1" parent="1">
          <mxGeometry x="820" y="660" width="110" height="70" as="geometry" />
        </mxCell>
        <mxCell id="S8cXDSExtbcGuD77vyI0-70" value="RF006.2&lt;div&gt;Registra conclusão&lt;/div&gt;" style="ellipse;whiteSpace=wrap;html=1;fillColor=#dae8fc;gradientColor=#7ea6e0;strokeColor=#6c8ebf;" vertex="1" parent="1">
          <mxGeometry x="820" y="750" width="120" height="70" as="geometry" />
        </mxCell>
        <mxCell id="S8cXDSExtbcGuD77vyI0-71" value="RF006.3&lt;div&gt;Atualiza o Registro&lt;/div&gt;" style="ellipse;whiteSpace=wrap;html=1;fillColor=#dae8fc;gradientColor=#7ea6e0;strokeColor=#6c8ebf;" vertex="1" parent="1">
          <mxGeometry x="820" y="840" width="120" height="70" as="geometry" />
        </mxCell>
        <mxCell id="S8cXDSExtbcGuD77vyI0-72" style="rounded=0;orthogonalLoop=1;jettySize=auto;html=1;exitX=1;exitY=1;exitDx=0;exitDy=0;entryX=0;entryY=0.5;entryDx=0;entryDy=0;endArrow=open;endFill=0;dashed=1;dashPattern=12 12;" edge="1" parent="1" source="S8cXDSExtbcGuD77vyI0-68" target="S8cXDSExtbcGuD77vyI0-71">
          <mxGeometry relative="1" as="geometry" />
        </mxCell>
        <mxCell id="S8cXDSExtbcGuD77vyI0-73" value="&amp;lt;&amp;lt;Include&amp;gt;&amp;gt;" style="edgeLabel;html=1;align=center;verticalAlign=middle;resizable=0;points=[];" vertex="1" connectable="0" parent="S8cXDSExtbcGuD77vyI0-72">
          <mxGeometry x="-0.0838" y="2" relative="1" as="geometry">
            <mxPoint as="offset" />
          </mxGeometry>
        </mxCell>
        <mxCell id="S8cXDSExtbcGuD77vyI0-74" style="edgeStyle=orthogonalEdgeStyle;rounded=0;orthogonalLoop=1;jettySize=auto;html=1;exitX=0.5;exitY=0.5;exitDx=0;exitDy=0;exitPerimeter=0;entryX=0;entryY=0.5;entryDx=0;entryDy=0;" edge="1" parent="1" source="S8cXDSExtbcGuD77vyI0-75" target="S8cXDSExtbcGuD77vyI0-80">
          <mxGeometry relative="1" as="geometry" />
        </mxCell>
        <mxCell id="S8cXDSExtbcGuD77vyI0-75" value="Usuário" style="shape=umlActor;verticalLabelPosition=bottom;verticalAlign=top;html=1;outlineConnect=0;fillColor=#f5f5f5;gradientColor=#b3b3b3;strokeColor=#666666;" vertex="1" parent="1">
          <mxGeometry x="-130" y="1050" width="60" height="110" as="geometry" />
        </mxCell>
        <mxCell id="S8cXDSExtbcGuD77vyI0-76" style="rounded=0;orthogonalLoop=1;jettySize=auto;html=1;exitX=1;exitY=0;exitDx=0;exitDy=0;dashed=1;dashPattern=12 12;endArrow=open;endFill=0;" edge="1" parent="1" source="S8cXDSExtbcGuD77vyI0-80" target="S8cXDSExtbcGuD77vyI0-81">
          <mxGeometry relative="1" as="geometry" />
        </mxCell>
        <mxCell id="S8cXDSExtbcGuD77vyI0-77" value="&amp;lt;&amp;lt;Include&amp;gt;&amp;gt;" style="edgeLabel;html=1;align=center;verticalAlign=middle;resizable=0;points=[];" vertex="1" connectable="0" parent="S8cXDSExtbcGuD77vyI0-76">
          <mxGeometry x="0.0261" y="2" relative="1" as="geometry">
            <mxPoint as="offset" />
          </mxGeometry>
        </mxCell>
        <mxCell id="S8cXDSExtbcGuD77vyI0-78" style="rounded=0;orthogonalLoop=1;jettySize=auto;html=1;exitX=1;exitY=0.5;exitDx=0;exitDy=0;entryX=0;entryY=0.5;entryDx=0;entryDy=0;dashed=1;dashPattern=12 12;endArrow=open;endFill=0;" edge="1" parent="1" source="S8cXDSExtbcGuD77vyI0-80" target="S8cXDSExtbcGuD77vyI0-82">
          <mxGeometry relative="1" as="geometry" />
        </mxCell>
        <mxCell id="S8cXDSExtbcGuD77vyI0-79" value="&amp;lt;&amp;lt;Include&amp;gt;&amp;gt;" style="edgeLabel;html=1;align=center;verticalAlign=middle;resizable=0;points=[];" vertex="1" connectable="0" parent="S8cXDSExtbcGuD77vyI0-78">
          <mxGeometry x="-0.1" y="-1" relative="1" as="geometry">
            <mxPoint as="offset" />
          </mxGeometry>
        </mxCell>
        <mxCell id="S8cXDSExtbcGuD77vyI0-80" value="RF007&lt;div&gt;Interação com Amigos&lt;/div&gt;" style="ellipse;whiteSpace=wrap;html=1;fillColor=#ffcd28;gradientColor=#ffa500;strokeColor=#d79b00;" vertex="1" parent="1">
          <mxGeometry y="1070" width="110" height="70" as="geometry" />
        </mxCell>
        <mxCell id="S8cXDSExtbcGuD77vyI0-81" value="RF007.1&lt;div&gt;Convidar usuários Amigos&lt;/div&gt;" style="ellipse;whiteSpace=wrap;html=1;fillColor=#dae8fc;gradientColor=#7ea6e0;strokeColor=#6c8ebf;" vertex="1" parent="1">
          <mxGeometry x="210" y="980" width="110" height="70" as="geometry" />
        </mxCell>
        <mxCell id="S8cXDSExtbcGuD77vyI0-82" value="RF007.2&lt;div&gt;Salva os amigos&lt;/div&gt;" style="ellipse;whiteSpace=wrap;html=1;fillColor=#dae8fc;gradientColor=#7ea6e0;strokeColor=#6c8ebf;" vertex="1" parent="1">
          <mxGeometry x="210" y="1070" width="120" height="70" as="geometry" />
        </mxCell>
        <mxCell id="S8cXDSExtbcGuD77vyI0-83" value="RF007.3&lt;div&gt;Visualiza progressos de Amigos&amp;nbsp;&lt;/div&gt;" style="ellipse;whiteSpace=wrap;html=1;fillColor=#dae8fc;gradientColor=#7ea6e0;strokeColor=#6c8ebf;" vertex="1" parent="1">
          <mxGeometry x="210" y="1160" width="120" height="70" as="geometry" />
        </mxCell>
        <mxCell id="S8cXDSExtbcGuD77vyI0-84" style="rounded=0;orthogonalLoop=1;jettySize=auto;html=1;exitX=1;exitY=1;exitDx=0;exitDy=0;entryX=0;entryY=0.5;entryDx=0;entryDy=0;endArrow=open;endFill=0;dashed=1;dashPattern=12 12;" edge="1" parent="1" source="S8cXDSExtbcGuD77vyI0-80" target="S8cXDSExtbcGuD77vyI0-83">
          <mxGeometry relative="1" as="geometry" />
        </mxCell>
        <mxCell id="S8cXDSExtbcGuD77vyI0-85" value="&amp;lt;&amp;lt;Include&amp;gt;&amp;gt;" style="edgeLabel;html=1;align=center;verticalAlign=middle;resizable=0;points=[];" vertex="1" connectable="0" parent="S8cXDSExtbcGuD77vyI0-84">
          <mxGeometry x="-0.0838" y="2" relative="1" as="geometry">
            <mxPoint as="offset" />
          </mxGeometry>
        </mxCell>
        <mxCell id="S8cXDSExtbcGuD77vyI0-86" style="edgeStyle=orthogonalEdgeStyle;rounded=0;orthogonalLoop=1;jettySize=auto;html=1;exitX=0.5;exitY=0.5;exitDx=0;exitDy=0;exitPerimeter=0;entryX=0;entryY=0.5;entryDx=0;entryDy=0;" edge="1" parent="1" source="S8cXDSExtbcGuD77vyI0-87" target="S8cXDSExtbcGuD77vyI0-92">
          <mxGeometry relative="1" as="geometry" />
        </mxCell>
        <mxCell id="S8cXDSExtbcGuD77vyI0-87" value="Usuário" style="shape=umlActor;verticalLabelPosition=bottom;verticalAlign=top;html=1;outlineConnect=0;fillColor=#f5f5f5;gradientColor=#b3b3b3;strokeColor=#666666;" vertex="1" parent="1">
          <mxGeometry x="480" y="1050" width="60" height="110" as="geometry" />
        </mxCell>
        <mxCell id="S8cXDSExtbcGuD77vyI0-88" style="rounded=0;orthogonalLoop=1;jettySize=auto;html=1;exitX=1;exitY=0;exitDx=0;exitDy=0;dashed=1;dashPattern=12 12;endArrow=open;endFill=0;" edge="1" parent="1" source="S8cXDSExtbcGuD77vyI0-92" target="S8cXDSExtbcGuD77vyI0-93">
          <mxGeometry relative="1" as="geometry" />
        </mxCell>
        <mxCell id="S8cXDSExtbcGuD77vyI0-89" value="&amp;lt;&amp;lt;Include&amp;gt;&amp;gt;" style="edgeLabel;html=1;align=center;verticalAlign=middle;resizable=0;points=[];" vertex="1" connectable="0" parent="S8cXDSExtbcGuD77vyI0-88">
          <mxGeometry x="0.0261" y="2" relative="1" as="geometry">
            <mxPoint as="offset" />
          </mxGeometry>
        </mxCell>
        <mxCell id="S8cXDSExtbcGuD77vyI0-90" style="rounded=0;orthogonalLoop=1;jettySize=auto;html=1;exitX=1;exitY=0.5;exitDx=0;exitDy=0;entryX=0;entryY=0.5;entryDx=0;entryDy=0;dashed=1;dashPattern=12 12;endArrow=open;endFill=0;" edge="1" parent="1" source="S8cXDSExtbcGuD77vyI0-92" target="S8cXDSExtbcGuD77vyI0-94">
          <mxGeometry relative="1" as="geometry" />
        </mxCell>
        <mxCell id="S8cXDSExtbcGuD77vyI0-91" value="&amp;lt;&amp;lt;Include&amp;gt;&amp;gt;" style="edgeLabel;html=1;align=center;verticalAlign=middle;resizable=0;points=[];" vertex="1" connectable="0" parent="S8cXDSExtbcGuD77vyI0-90">
          <mxGeometry x="-0.1" y="-1" relative="1" as="geometry">
            <mxPoint as="offset" />
          </mxGeometry>
        </mxCell>
        <mxCell id="S8cXDSExtbcGuD77vyI0-92" value="RF008&lt;div&gt;Conquistas e Recompensas&amp;nbsp;&lt;/div&gt;" style="ellipse;whiteSpace=wrap;html=1;fillColor=#ffcd28;gradientColor=#ffa500;strokeColor=#d79b00;" vertex="1" parent="1">
          <mxGeometry x="610" y="1070" width="110" height="70" as="geometry" />
        </mxCell>
        <mxCell id="S8cXDSExtbcGuD77vyI0-93" value="RF008.1&lt;div&gt;Recebe conquistas após atingir metas&lt;/div&gt;" style="ellipse;whiteSpace=wrap;html=1;fillColor=#dae8fc;gradientColor=#7ea6e0;strokeColor=#6c8ebf;" vertex="1" parent="1">
          <mxGeometry x="820" y="980" width="130" height="70" as="geometry" />
        </mxCell>
        <mxCell id="S8cXDSExtbcGuD77vyI0-94" value="RF008.2&lt;div&gt;Armazena as conquistas&lt;/div&gt;" style="ellipse;whiteSpace=wrap;html=1;fillColor=#dae8fc;gradientColor=#7ea6e0;strokeColor=#6c8ebf;" vertex="1" parent="1">
          <mxGeometry x="820" y="1070" width="120" height="70" as="geometry" />
        </mxCell>
        <mxCell id="S8cXDSExtbcGuD77vyI0-95" value="RF008.3&lt;div&gt;Visualiza as Conquistas&lt;/div&gt;" style="ellipse;whiteSpace=wrap;html=1;fillColor=#dae8fc;gradientColor=#7ea6e0;strokeColor=#6c8ebf;" vertex="1" parent="1">
          <mxGeometry x="820" y="1160" width="120" height="70" as="geometry" />
        </mxCell>
        <mxCell id="S8cXDSExtbcGuD77vyI0-96" style="rounded=0;orthogonalLoop=1;jettySize=auto;html=1;exitX=1;exitY=1;exitDx=0;exitDy=0;entryX=0;entryY=0.5;entryDx=0;entryDy=0;endArrow=open;endFill=0;dashed=1;dashPattern=12 12;" edge="1" parent="1" source="S8cXDSExtbcGuD77vyI0-92" target="S8cXDSExtbcGuD77vyI0-95">
          <mxGeometry relative="1" as="geometry" />
        </mxCell>
        <mxCell id="S8cXDSExtbcGuD77vyI0-97" value="&amp;lt;&amp;lt;Include&amp;gt;&amp;gt;" style="edgeLabel;html=1;align=center;verticalAlign=middle;resizable=0;points=[];" vertex="1" connectable="0" parent="S8cXDSExtbcGuD77vyI0-96">
          <mxGeometry x="-0.0838" y="2" relative="1" as="geometry">
            <mxPoint as="offset" />
          </mxGeometry>
        </mxCell>
        <mxCell id="S8cXDSExtbcGuD77vyI0-98" style="edgeStyle=orthogonalEdgeStyle;rounded=0;orthogonalLoop=1;jettySize=auto;html=1;exitX=0.5;exitY=0.5;exitDx=0;exitDy=0;exitPerimeter=0;entryX=0;entryY=0.5;entryDx=0;entryDy=0;" edge="1" parent="1" source="S8cXDSExtbcGuD77vyI0-99" target="S8cXDSExtbcGuD77vyI0-104">
          <mxGeometry relative="1" as="geometry" />
        </mxCell>
        <mxCell id="S8cXDSExtbcGuD77vyI0-99" value="Usuário" style="shape=umlActor;verticalLabelPosition=bottom;verticalAlign=top;html=1;outlineConnect=0;fillColor=#f5f5f5;gradientColor=#b3b3b3;strokeColor=#666666;" vertex="1" parent="1">
          <mxGeometry x="-130" y="1390" width="60" height="110" as="geometry" />
        </mxCell>
        <mxCell id="S8cXDSExtbcGuD77vyI0-100" style="rounded=0;orthogonalLoop=1;jettySize=auto;html=1;exitX=1;exitY=0;exitDx=0;exitDy=0;dashed=1;dashPattern=12 12;endArrow=open;endFill=0;" edge="1" parent="1" source="S8cXDSExtbcGuD77vyI0-104" target="S8cXDSExtbcGuD77vyI0-105">
          <mxGeometry relative="1" as="geometry" />
        </mxCell>
        <mxCell id="S8cXDSExtbcGuD77vyI0-101" value="&amp;lt;&amp;lt;Include&amp;gt;&amp;gt;" style="edgeLabel;html=1;align=center;verticalAlign=middle;resizable=0;points=[];" vertex="1" connectable="0" parent="S8cXDSExtbcGuD77vyI0-100">
          <mxGeometry x="0.0261" y="2" relative="1" as="geometry">
            <mxPoint as="offset" />
          </mxGeometry>
        </mxCell>
        <mxCell id="S8cXDSExtbcGuD77vyI0-102" style="rounded=0;orthogonalLoop=1;jettySize=auto;html=1;exitX=1;exitY=0.5;exitDx=0;exitDy=0;entryX=0;entryY=0.5;entryDx=0;entryDy=0;dashed=1;dashPattern=12 12;endArrow=open;endFill=0;" edge="1" parent="1" source="S8cXDSExtbcGuD77vyI0-104" target="S8cXDSExtbcGuD77vyI0-106">
          <mxGeometry relative="1" as="geometry" />
        </mxCell>
        <mxCell id="S8cXDSExtbcGuD77vyI0-103" value="&amp;lt;&amp;lt;Include&amp;gt;&amp;gt;" style="edgeLabel;html=1;align=center;verticalAlign=middle;resizable=0;points=[];" vertex="1" connectable="0" parent="S8cXDSExtbcGuD77vyI0-102">
          <mxGeometry x="-0.1" y="-1" relative="1" as="geometry">
            <mxPoint as="offset" />
          </mxGeometry>
        </mxCell>
        <mxCell id="S8cXDSExtbcGuD77vyI0-104" value="RF009&lt;div&gt;Resumos&lt;/div&gt;" style="ellipse;whiteSpace=wrap;html=1;fillColor=#ffcd28;gradientColor=#ffa500;strokeColor=#d79b00;" vertex="1" parent="1">
          <mxGeometry y="1410" width="110" height="70" as="geometry" />
        </mxCell>
        <mxCell id="S8cXDSExtbcGuD77vyI0-105" value="RF009.1&lt;div&gt;Criar Resumos personalizados&lt;/div&gt;" style="ellipse;whiteSpace=wrap;html=1;fillColor=#dae8fc;gradientColor=#7ea6e0;strokeColor=#6c8ebf;" vertex="1" parent="1">
          <mxGeometry x="210" y="1320" width="130" height="70" as="geometry" />
        </mxCell>
        <mxCell id="S8cXDSExtbcGuD77vyI0-106" value="RF009.2&lt;div&gt;Armazena os Resumos&lt;/div&gt;" style="ellipse;whiteSpace=wrap;html=1;fillColor=#dae8fc;gradientColor=#7ea6e0;strokeColor=#6c8ebf;" vertex="1" parent="1">
          <mxGeometry x="210" y="1410" width="120" height="70" as="geometry" />
        </mxCell>
        <mxCell id="S8cXDSExtbcGuD77vyI0-107" value="RF009.3&lt;div&gt;Visualiza e edita Resumos&lt;/div&gt;" style="ellipse;whiteSpace=wrap;html=1;fillColor=#dae8fc;gradientColor=#7ea6e0;strokeColor=#6c8ebf;" vertex="1" parent="1">
          <mxGeometry x="210" y="1500" width="120" height="70" as="geometry" />
        </mxCell>
        <mxCell id="S8cXDSExtbcGuD77vyI0-108" style="rounded=0;orthogonalLoop=1;jettySize=auto;html=1;exitX=1;exitY=1;exitDx=0;exitDy=0;entryX=0;entryY=0.5;entryDx=0;entryDy=0;endArrow=open;endFill=0;dashed=1;dashPattern=12 12;" edge="1" parent="1" source="S8cXDSExtbcGuD77vyI0-104" target="S8cXDSExtbcGuD77vyI0-107">
          <mxGeometry relative="1" as="geometry" />
        </mxCell>
        <mxCell id="S8cXDSExtbcGuD77vyI0-109" value="&amp;lt;&amp;lt;Include&amp;gt;&amp;gt;" style="edgeLabel;html=1;align=center;verticalAlign=middle;resizable=0;points=[];" vertex="1" connectable="0" parent="S8cXDSExtbcGuD77vyI0-108">
          <mxGeometry x="-0.0838" y="2" relative="1" as="geometry">
            <mxPoint as="offset" />
          </mxGeometry>
        </mxCell>
        <mxCell id="S8cXDSExtbcGuD77vyI0-110" style="edgeStyle=orthogonalEdgeStyle;rounded=0;orthogonalLoop=1;jettySize=auto;html=1;exitX=0.5;exitY=0.5;exitDx=0;exitDy=0;exitPerimeter=0;entryX=0;entryY=0.5;entryDx=0;entryDy=0;" edge="1" parent="1" source="S8cXDSExtbcGuD77vyI0-111" target="S8cXDSExtbcGuD77vyI0-116">
          <mxGeometry relative="1" as="geometry" />
        </mxCell>
        <mxCell id="S8cXDSExtbcGuD77vyI0-111" value="Usuário" style="shape=umlActor;verticalLabelPosition=bottom;verticalAlign=top;html=1;outlineConnect=0;fillColor=#f5f5f5;gradientColor=#b3b3b3;strokeColor=#666666;" vertex="1" parent="1">
          <mxGeometry x="480" y="1390" width="60" height="110" as="geometry" />
        </mxCell>
        <mxCell id="S8cXDSExtbcGuD77vyI0-112" style="rounded=0;orthogonalLoop=1;jettySize=auto;html=1;exitX=1;exitY=0;exitDx=0;exitDy=0;dashed=1;dashPattern=12 12;endArrow=open;endFill=0;" edge="1" parent="1" source="S8cXDSExtbcGuD77vyI0-116" target="S8cXDSExtbcGuD77vyI0-117">
          <mxGeometry relative="1" as="geometry" />
        </mxCell>
        <mxCell id="S8cXDSExtbcGuD77vyI0-113" value="&amp;lt;&amp;lt;Include&amp;gt;&amp;gt;" style="edgeLabel;html=1;align=center;verticalAlign=middle;resizable=0;points=[];" vertex="1" connectable="0" parent="S8cXDSExtbcGuD77vyI0-112">
          <mxGeometry x="0.0261" y="2" relative="1" as="geometry">
            <mxPoint as="offset" />
          </mxGeometry>
        </mxCell>
        <mxCell id="S8cXDSExtbcGuD77vyI0-114" style="rounded=0;orthogonalLoop=1;jettySize=auto;html=1;exitX=1;exitY=0.5;exitDx=0;exitDy=0;entryX=0;entryY=0.5;entryDx=0;entryDy=0;dashed=1;dashPattern=12 12;endArrow=open;endFill=0;" edge="1" parent="1" source="S8cXDSExtbcGuD77vyI0-116" target="S8cXDSExtbcGuD77vyI0-118">
          <mxGeometry relative="1" as="geometry" />
        </mxCell>
        <mxCell id="S8cXDSExtbcGuD77vyI0-115" value="&amp;lt;&amp;lt;Include&amp;gt;&amp;gt;" style="edgeLabel;html=1;align=center;verticalAlign=middle;resizable=0;points=[];" vertex="1" connectable="0" parent="S8cXDSExtbcGuD77vyI0-114">
          <mxGeometry x="-0.1" y="-1" relative="1" as="geometry">
            <mxPoint as="offset" />
          </mxGeometry>
        </mxCell>
        <mxCell id="S8cXDSExtbcGuD77vyI0-116" value="RF010&lt;div&gt;Gerenciamento de Perfil&lt;/div&gt;" style="ellipse;whiteSpace=wrap;html=1;fillColor=#ffcd28;gradientColor=#ffa500;strokeColor=#d79b00;" vertex="1" parent="1">
          <mxGeometry x="610" y="1410" width="110" height="70" as="geometry" />
        </mxCell>
        <mxCell id="S8cXDSExtbcGuD77vyI0-117" value="RF010.1&lt;div&gt;Visualiza e edita informações pessoais&amp;nbsp;&lt;/div&gt;" style="ellipse;whiteSpace=wrap;html=1;fillColor=#dae8fc;gradientColor=#7ea6e0;strokeColor=#6c8ebf;" vertex="1" parent="1">
          <mxGeometry x="820" y="1320" width="160" height="70" as="geometry" />
        </mxCell>
        <mxCell id="S8cXDSExtbcGuD77vyI0-118" value="RF010.2&lt;div&gt;Visualiza&amp;nbsp; Progresso&amp;nbsp;&lt;/div&gt;" style="ellipse;whiteSpace=wrap;html=1;fillColor=#dae8fc;gradientColor=#7ea6e0;strokeColor=#6c8ebf;" vertex="1" parent="1">
          <mxGeometry x="820" y="1410" width="120" height="70" as="geometry" />
        </mxCell>
        <mxCell id="S8cXDSExtbcGuD77vyI0-119" value="RF010.3&lt;div&gt;Visualiza Certificados&lt;/div&gt;" style="ellipse;whiteSpace=wrap;html=1;fillColor=#dae8fc;gradientColor=#7ea6e0;strokeColor=#6c8ebf;" vertex="1" parent="1">
          <mxGeometry x="820" y="1500" width="130" height="70" as="geometry" />
        </mxCell>
        <mxCell id="S8cXDSExtbcGuD77vyI0-120" style="rounded=0;orthogonalLoop=1;jettySize=auto;html=1;exitX=1;exitY=1;exitDx=0;exitDy=0;entryX=0;entryY=0.5;entryDx=0;entryDy=0;endArrow=open;endFill=0;dashed=1;dashPattern=12 12;" edge="1" parent="1" source="S8cXDSExtbcGuD77vyI0-116" target="S8cXDSExtbcGuD77vyI0-119">
          <mxGeometry relative="1" as="geometry" />
        </mxCell>
        <mxCell id="S8cXDSExtbcGuD77vyI0-121" value="&amp;lt;&amp;lt;Include&amp;gt;&amp;gt;" style="edgeLabel;html=1;align=center;verticalAlign=middle;resizable=0;points=[];" vertex="1" connectable="0" parent="S8cXDSExtbcGuD77vyI0-120">
          <mxGeometry x="-0.0838" y="2" relative="1" as="geometry">
            <mxPoint as="offset" />
          </mxGeometry>
        </mxCell>
        <mxCell id="S8cXDSExtbcGuD77vyI0-122" style="edgeStyle=orthogonalEdgeStyle;rounded=0;orthogonalLoop=1;jettySize=auto;html=1;exitX=0.5;exitY=0.5;exitDx=0;exitDy=0;exitPerimeter=0;entryX=0;entryY=0.5;entryDx=0;entryDy=0;" edge="1" parent="1" source="S8cXDSExtbcGuD77vyI0-123" target="S8cXDSExtbcGuD77vyI0-128">
          <mxGeometry relative="1" as="geometry" />
        </mxCell>
        <mxCell id="S8cXDSExtbcGuD77vyI0-123" value="Usuário" style="shape=umlActor;verticalLabelPosition=bottom;verticalAlign=top;html=1;outlineConnect=0;fillColor=#f5f5f5;gradientColor=#b3b3b3;strokeColor=#666666;" vertex="1" parent="1">
          <mxGeometry x="164" y="1670" width="60" height="110" as="geometry" />
        </mxCell>
        <mxCell id="S8cXDSExtbcGuD77vyI0-124" style="rounded=0;orthogonalLoop=1;jettySize=auto;html=1;exitX=1;exitY=0;exitDx=0;exitDy=0;dashed=1;dashPattern=12 12;endArrow=open;endFill=0;" edge="1" parent="1" source="S8cXDSExtbcGuD77vyI0-128" target="S8cXDSExtbcGuD77vyI0-129">
          <mxGeometry relative="1" as="geometry" />
        </mxCell>
        <mxCell id="S8cXDSExtbcGuD77vyI0-125" value="&amp;lt;&amp;lt;Include&amp;gt;&amp;gt;" style="edgeLabel;html=1;align=center;verticalAlign=middle;resizable=0;points=[];" vertex="1" connectable="0" parent="S8cXDSExtbcGuD77vyI0-124">
          <mxGeometry x="0.0261" y="2" relative="1" as="geometry">
            <mxPoint as="offset" />
          </mxGeometry>
        </mxCell>
        <mxCell id="S8cXDSExtbcGuD77vyI0-126" style="rounded=0;orthogonalLoop=1;jettySize=auto;html=1;exitX=1;exitY=0.5;exitDx=0;exitDy=0;entryX=0;entryY=0.5;entryDx=0;entryDy=0;dashed=1;dashPattern=12 12;endArrow=open;endFill=0;" edge="1" parent="1" source="S8cXDSExtbcGuD77vyI0-128" target="S8cXDSExtbcGuD77vyI0-130">
          <mxGeometry relative="1" as="geometry" />
        </mxCell>
        <mxCell id="S8cXDSExtbcGuD77vyI0-127" value="&amp;lt;&amp;lt;Include&amp;gt;&amp;gt;" style="edgeLabel;html=1;align=center;verticalAlign=middle;resizable=0;points=[];" vertex="1" connectable="0" parent="S8cXDSExtbcGuD77vyI0-126">
          <mxGeometry x="-0.1" y="-1" relative="1" as="geometry">
            <mxPoint as="offset" />
          </mxGeometry>
        </mxCell>
        <mxCell id="S8cXDSExtbcGuD77vyI0-128" value="RF011&lt;div&gt;Comunidades&lt;/div&gt;" style="ellipse;whiteSpace=wrap;html=1;fillColor=#ffcd28;gradientColor=#ffa500;strokeColor=#d79b00;" vertex="1" parent="1">
          <mxGeometry x="294" y="1690" width="110" height="70" as="geometry" />
        </mxCell>
        <mxCell id="S8cXDSExtbcGuD77vyI0-129" value="RF011.1&lt;div&gt;Amigos cria Comunidade&lt;/div&gt;" style="ellipse;whiteSpace=wrap;html=1;fillColor=#dae8fc;gradientColor=#7ea6e0;strokeColor=#6c8ebf;" vertex="1" parent="1">
          <mxGeometry x="504" y="1600" width="160" height="70" as="geometry" />
        </mxCell>
        <mxCell id="S8cXDSExtbcGuD77vyI0-130" value="RF011.2&lt;div&gt;Registra e Exibe Progresso individual&lt;/div&gt;" style="ellipse;whiteSpace=wrap;html=1;fillColor=#dae8fc;gradientColor=#7ea6e0;strokeColor=#6c8ebf;" vertex="1" parent="1">
          <mxGeometry x="504" y="1690" width="136" height="70" as="geometry" />
        </mxCell>
        <mxCell id="S8cXDSExtbcGuD77vyI0-131" value="RF011.3&lt;div&gt;Visualiza Acertos e erros&lt;/div&gt;" style="ellipse;whiteSpace=wrap;html=1;fillColor=#dae8fc;gradientColor=#7ea6e0;strokeColor=#6c8ebf;" vertex="1" parent="1">
          <mxGeometry x="504" y="1780" width="130" height="70" as="geometry" />
        </mxCell>
        <mxCell id="S8cXDSExtbcGuD77vyI0-132" style="rounded=0;orthogonalLoop=1;jettySize=auto;html=1;exitX=1;exitY=1;exitDx=0;exitDy=0;entryX=0;entryY=0.5;entryDx=0;entryDy=0;endArrow=open;endFill=0;dashed=1;dashPattern=12 12;" edge="1" parent="1" source="S8cXDSExtbcGuD77vyI0-128" target="S8cXDSExtbcGuD77vyI0-131">
          <mxGeometry relative="1" as="geometry" />
        </mxCell>
        <mxCell id="S8cXDSExtbcGuD77vyI0-133" value="&amp;lt;&amp;lt;Include&amp;gt;&amp;gt;" style="edgeLabel;html=1;align=center;verticalAlign=middle;resizable=0;points=[];" vertex="1" connectable="0" parent="S8cXDSExtbcGuD77vyI0-132">
          <mxGeometry x="-0.0838" y="2" relative="1" as="geometry">
            <mxPoint as="offset" />
          </mxGeometry>
        </mxCell>
        <mxCell id="S8cXDSExtbcGuD77vyI0-134" value="&lt;font style=&quot;font-size: 20px;&quot;&gt;&lt;b&gt;DIAGRAMA DE CASO DE USO&lt;/b&gt;&lt;/font&gt;&lt;div style=&quot;font-size: 20px;&quot;&gt;&lt;font style=&quot;font-size: 20px;&quot;&gt;&lt;b&gt;&amp;nbsp;&lt;/b&gt;&lt;/font&gt;&lt;div style=&quot;&quot;&gt;&lt;font style=&quot;font-size: 20px;&quot;&gt;&lt;b&gt;LEKA&lt;/b&gt;&lt;/font&gt;&lt;/div&gt;&lt;/div&gt;" style="rounded=1;whiteSpace=wrap;html=1;fillColor=#fff2cc;gradientColor=#ffd966;strokeColor=#d6b656;" vertex="1" parent="1">
          <mxGeometry x="90" y="-110" width="620" height="110" as="geometry" />
        </mxCell>
        <mxCell id="S8cXDSExtbcGuD77vyI0-135" value="Projeto: LEKA&lt;div&gt;UML - DCU (Diagrama de Casos de Uso)&lt;/div&gt;" style="text;html=1;align=center;verticalAlign=middle;resizable=0;points=[];autosize=1;strokeColor=none;fillColor=none;" vertex="1" parent="1">
          <mxGeometry x="-70" y="50" width="240" height="40" as="geometry" />
        </mxCell>
        <mxCell id="S8cXDSExtbcGuD77vyI0-136" value="Projeto: LEKA&lt;div&gt;UML - DCU (Diagrama de Casos de Uso)&lt;/div&gt;" style="text;html=1;align=center;verticalAlign=middle;resizable=0;points=[];autosize=1;strokeColor=none;fillColor=none;" vertex="1" parent="1">
          <mxGeometry x="520" y="60" width="240" height="40" as="geometry" />
        </mxCell>
        <mxCell id="S8cXDSExtbcGuD77vyI0-137" value="Projeto: LEKA&lt;div&gt;UML - DCU (Diagrama de Casos de Uso)&lt;/div&gt;" style="text;html=1;align=center;verticalAlign=middle;resizable=0;points=[];autosize=1;strokeColor=none;fillColor=none;" vertex="1" parent="1">
          <mxGeometry x="-70" y="370" width="240" height="40" as="geometry" />
        </mxCell>
        <mxCell id="S8cXDSExtbcGuD77vyI0-138" value="Projeto: LEKA&lt;div&gt;UML - DCU (Diagrama de Casos de Uso)&lt;/div&gt;" style="text;html=1;align=center;verticalAlign=middle;resizable=0;points=[];autosize=1;strokeColor=none;fillColor=none;" vertex="1" parent="1">
          <mxGeometry x="530" y="375" width="240" height="40" as="geometry" />
        </mxCell>
        <mxCell id="S8cXDSExtbcGuD77vyI0-139" value="Projeto: LEKA&lt;div&gt;UML - DCU (Diagrama de Casos de Uso)&lt;/div&gt;" style="text;html=1;align=center;verticalAlign=middle;resizable=0;points=[];autosize=1;strokeColor=none;fillColor=none;" vertex="1" parent="1">
          <mxGeometry x="-76" y="660" width="240" height="40" as="geometry" />
        </mxCell>
        <mxCell id="S8cXDSExtbcGuD77vyI0-140" value="Projeto: LEKA&lt;div&gt;UML - DCU (Diagrama de Casos de Uso)&lt;/div&gt;" style="text;html=1;align=center;verticalAlign=middle;resizable=0;points=[];autosize=1;strokeColor=none;fillColor=none;" vertex="1" parent="1">
          <mxGeometry x="540" y="665" width="240" height="40" as="geometry" />
        </mxCell>
        <mxCell id="S8cXDSExtbcGuD77vyI0-141" value="Projeto: LEKA&lt;div&gt;UML - DCU (Diagrama de Casos de Uso)&lt;/div&gt;" style="text;html=1;align=center;verticalAlign=middle;resizable=0;points=[];autosize=1;strokeColor=none;fillColor=none;" vertex="1" parent="1">
          <mxGeometry x="-65" y="970" width="240" height="40" as="geometry" />
        </mxCell>
        <mxCell id="S8cXDSExtbcGuD77vyI0-142" value="Projeto: LEKA&lt;div&gt;UML - DCU (Diagrama de Casos de Uso)&lt;/div&gt;" style="text;html=1;align=center;verticalAlign=middle;resizable=0;points=[];autosize=1;strokeColor=none;fillColor=none;" vertex="1" parent="1">
          <mxGeometry x="540" y="990" width="240" height="40" as="geometry" />
        </mxCell>
        <mxCell id="S8cXDSExtbcGuD77vyI0-143" value="Projeto: LEKA&lt;div&gt;UML - DCU (Diagrama de Casos de Uso)&lt;/div&gt;" style="text;html=1;align=center;verticalAlign=middle;resizable=0;points=[];autosize=1;strokeColor=none;fillColor=none;" vertex="1" parent="1">
          <mxGeometry x="-65" y="1310" width="240" height="40" as="geometry" />
        </mxCell>
        <mxCell id="S8cXDSExtbcGuD77vyI0-144" value="Projeto: LEKA&lt;div&gt;UML - DCU (Diagrama de Casos de Uso)&lt;/div&gt;" style="text;html=1;align=center;verticalAlign=middle;resizable=0;points=[];autosize=1;strokeColor=none;fillColor=none;" vertex="1" parent="1">
          <mxGeometry x="540" y="1320" width="240" height="40" as="geometry" />
        </mxCell>
        <mxCell id="S8cXDSExtbcGuD77vyI0-145" value="Projeto: LEKA&lt;div&gt;UML - DCU (Diagrama de Casos de Uso)&lt;/div&gt;" style="text;html=1;align=center;verticalAlign=middle;resizable=0;points=[];autosize=1;strokeColor=none;fillColor=none;" vertex="1" parent="1">
          <mxGeometry x="240" y="1600" width="240" height="40" as="geometry" />
        </mxCell>
      </root>
    </mxGraphModel>
  </diagram>
</mxfile>
